<svg width="9" height="9" viewBox="0 0 9 9" fill="none" xmlns="http://www.w3.org/2000/svg">
<g clip-path="url(#clip0_1303_2430)">
<path d="M6.88399 1.60767C6.59145 1.60767 6.35742 1.84424 6.35742 2.13423C6.35742 2.42423 6.594 2.6608 6.88399 2.6608C7.17398 2.6608 7.41056 2.42423 7.41056 2.13423C7.41056 1.84424 7.17398 1.60767 6.88399 1.60767Z" fill="white"/>
<path d="M4.53792 2.28442C3.3169 2.28442 2.32227 3.27905 2.32227 4.50008C2.32227 5.72111 3.3169 6.71574 4.53792 6.71574C5.75895 6.71574 6.75358 5.72111 6.75358 4.50008C6.75358 3.27905 5.75895 2.28442 4.53792 2.28442ZM4.53792 5.91953C3.75443 5.91953 3.11848 5.28358 3.11848 4.50008C3.11848 3.71659 3.75443 3.08064 4.53792 3.08064C5.32142 3.08064 5.95737 3.71659 5.95737 4.50008C5.95737 5.28358 5.32142 5.91953 4.53792 5.91953Z" fill="white"/>
<path d="M6.29652 9H2.70212C1.21144 9 -0.00195312 7.7866 -0.00195312 6.29593V2.70153C0.000590685 1.2134 1.21399 0 2.70466 0H6.29906C7.78974 0 9.00313 1.2134 9.00313 2.70407V6.29847C9.00313 7.78915 7.78974 9.00254 6.29906 9.00254L6.29652 9ZM2.70466 0.847089C1.68205 0.847089 0.847679 1.67891 0.847679 2.70407V6.29847C0.847679 7.32109 1.67951 8.15546 2.70466 8.15546H6.29906C7.32168 8.15546 8.15605 7.32363 8.15605 6.29847V2.70407C8.15605 1.68146 7.32422 0.847089 6.29906 0.847089H2.70466Z" fill="white"/>
</g>
<defs>
<clipPath id="clip0_1303_2430">
<rect width="9" height="9" fill="white"/>
</clipPath>
</defs>
</svg>
